<svg xmlns="http://www.w3.org/2000/svg" viewBox="0 0 520 320" role="img"><title>Grid three edges wide and two edges high, from bottom-left A to top-right B</title><rect width="520" height="320" rx="12" fill="#fffef9"/><line x1="132" y1="60" x2="132" y2="230" stroke="#304638" stroke-width="3"/><line x1="217" y1="60" x2="217" y2="230" stroke="#304638" stroke-width="3"/><line x1="302" y1="60" x2="302" y2="230" stroke="#304638" stroke-width="3"/><line x1="387" y1="60" x2="387" y2="230" stroke="#304638" stroke-width="3"/><line x1="132" y1="60" x2="387" y2="60" stroke="#304638" stroke-width="3"/><line x1="132" y1="145" x2="387" y2="145" stroke="#304638" stroke-width="3"/><line x1="132" y1="230" x2="387" y2="230" stroke="#304638" stroke-width="3"/><circle cx="132" cy="60" r="3" fill="#304638"/><circle cx="132" cy="145" r="3" fill="#304638"/><circle cx="132" cy="230" r="3" fill="#304638"/><circle cx="217" cy="60" r="3" fill="#304638"/><circle cx="217" cy="145" r="3" fill="#304638"/><circle cx="217" cy="230" r="3" fill="#304638"/><circle cx="302" cy="60" r="3" fill="#304638"/><circle cx="302" cy="145" r="3" fill="#304638"/><circle cx="302" cy="230" r="3" fill="#304638"/><circle cx="387" cy="60" r="3" fill="#304638"/><circle cx="387" cy="145" r="3" fill="#304638"/><circle cx="387" cy="230" r="3" fill="#304638"/><circle cx="132" cy="230" r="7" fill="#ac432b"/><circle cx="387" cy="60" r="7" fill="#ac432b"/><text x="109" y="260" text-anchor="middle" fill="#304638" font-size="22" font-family="Arial, sans-serif">A</text><text x="411" y="46" text-anchor="middle" fill="#304638" font-size="22" font-family="Arial, sans-serif">B</text></svg>